<svg width="70" height="69" viewBox="0 0 85 69" fill="none" xmlns="http://www.w3.org/2000/svg">
<path d="M49.2917 6.5H43.5417V3.625C43.5417 2.8625 43.2388 2.13123 42.6996 1.59207C42.1605 1.0529 41.4292 0.75 40.6667 0.75C39.9042 0.75 39.1729 1.0529 38.6338 1.59207C38.0946 2.13123 37.7917 2.8625 37.7917 3.625V6.5H20.5417V3.625C20.5417 2.8625 20.2388 2.13123 19.6996 1.59207C19.1605 1.0529 18.4292 0.75 17.6667 0.75C16.9042 0.75 16.1729 1.0529 15.6338 1.59207C15.0946 2.13123 14.7917 2.8625 14.7917 3.625V6.5H9.04169C6.75419 6.5 4.56039 7.4087 2.94289 9.0262C1.32539 10.6437 0.416687 12.8375 0.416687 15.125V49.625C0.416687 51.9125 1.32539 54.1063 2.94289 55.7238C4.56039 57.3413 6.75419 58.25 9.04169 58.25H49.2917C51.5792 58.25 53.773 57.3413 55.3905 55.7238C57.008 54.1063 57.9167 51.9125 57.9167 49.625V15.125C57.9167 12.8375 57.008 10.6437 55.3905 9.0262C53.773 7.4087 51.5792 6.5 49.2917 6.5ZM52.1667 49.625C52.1667 50.3875 51.8638 51.1188 51.3246 51.6579C50.7855 52.1971 50.0542 52.5 49.2917 52.5H9.04169C8.27919 52.5 7.54792 52.1971 7.00876 51.6579C6.46959 51.1188 6.16669 50.3875 6.16669 49.625V29.5H52.1667V49.625ZM52.1667 23.75H6.16669V15.125C6.16669 14.3625 6.46959 13.6312 7.00876 13.0921C7.54792 12.5529 8.27919 12.25 9.04169 12.25H14.7917V15.125C14.7917 15.8875 15.0946 16.6188 15.6338 17.1579C16.1729 17.6971 16.9042 18 17.6667 18C18.4292 18 19.1605 17.6971 19.6996 17.1579C20.2388 16.6188 20.5417 15.8875 20.5417 15.125V12.25H37.7917V15.125C37.7917 15.8875 38.0946 16.6188 38.6338 17.1579C39.1729 17.6971 39.9042 18 40.6667 18C41.4292 18 42.1605 17.6971 42.6996 17.1579C43.2388 16.6188 43.5417 15.8875 43.5417 15.125V12.25H49.2917C50.0542 12.25 50.7855 12.5529 51.3246 13.0921C51.8638 13.6312 52.1667 14.3625 52.1667 15.125V23.75Z" fill="black"/>
</svg>
