<svg width="70" height="69" viewBox="0 0 70 69" fill="none" xmlns="http://www.w3.org/2000/svg">
<path d="M20.9341 47.3104L20.9352 47.3186C21.0777 48.4891 21.2766 49.6521 21.5313 50.8035C21.5413 50.8468 21.5514 50.8901 21.5618 50.9334C22.8758 51.2458 24.0716 51.947 24.9886 52.953C26.0611 54.1294 26.6832 55.6471 26.7451 57.2378C26.807 58.8285 26.3047 60.3899 25.327 61.6462C24.3492 62.9024 22.9589 63.7727 21.4016 64.1032C19.8444 64.4337 18.2205 64.2032 16.8167 63.4524C15.413 62.7016 14.3197 61.4789 13.7302 60.0002C13.1406 58.5214 13.0927 56.8819 13.5948 55.3713C14.0181 54.0976 14.8095 52.9846 15.861 52.1683C15.8561 52.1472 15.8512 52.1261 15.8463 52.1049L15.8455 52.1019C15.5721 50.909 15.3272 49.474 15.1476 48.039L15.1475 48.0386C15.0441 47.21 14.9598 46.36 14.9056 45.5375C11.4529 47.029 8.31689 48.9425 5.97914 51.0808C3.33219 53.502 1.83334 56.0908 1.83334 58.5925V68H68.8333V58.5925C68.8333 56.1973 67.4611 53.7221 65.0151 51.3862C62.8876 49.3543 60.0304 47.5112 56.842 46.0228C56.8176 46.8169 56.7619 47.6378 56.6838 48.436C56.6837 48.4365 56.6836 48.4371 56.6836 48.4377L55.6883 48.3403C55.6092 49.1634 55.5037 49.9848 55.3788 50.75L20.9341 47.3104ZM20.9341 47.3104C20.7807 46.1315 20.6939 44.945 20.6741 43.7564C20.6732 43.6807 20.6731 43.605 20.6737 43.5293C21.1493 43.4017 21.6248 43.2833 22.0987 43.1757C22.1202 43.1924 22.1547 43.2232 22.201 43.2768C22.3855 43.4905 22.5579 43.8203 22.7741 44.2526L22.7773 44.2589L22.9421 44.5829L23.2202 45.1293H23.8333H46.3523H46.9553L47.2367 44.596C47.423 44.2429 47.7223 43.7994 48.0475 43.4865C48.3797 43.1669 48.5334 43.1703 48.5335 43.168C48.5335 43.1679 48.5334 43.1679 48.5331 43.1678C49.3401 43.3516 50.1512 43.5634 50.9584 43.8012C50.9849 44.0331 51.0053 44.3247 51.0164 44.6764C51.0417 45.5883 50.9893 46.7187 50.8789 47.8757C50.777 48.9228 50.6312 49.9307 50.4688 50.75H48.75H48.7495C48.208 50.7503 47.6772 50.9013 47.2167 51.1862L47.7428 52.0366L47.2167 51.1862C46.7562 51.471 46.3841 51.8784 46.1421 52.3627C46.142 52.3628 46.142 52.3628 46.142 52.3629L44.2259 56.195C44.0229 56.5998 43.9171 57.0463 43.9167 57.4992V57.5V61.3333C43.9167 62.1069 44.224 62.8487 44.7709 63.3957C45.3179 63.9427 46.0598 64.25 46.8333 64.25H50.6667H51.6667V63.25V59.4167V58.4167H50.6667H49.75V58.1884L50.5525 56.5833H54.6141L55.4167 58.1884V58.4167H54.5H53.5V59.4167V63.25V64.25H54.5H58.3333C59.1069 64.25 59.8488 63.9427 60.3957 63.3957C60.9427 62.8487 61.25 62.1069 61.25 61.3333V57.5V57.4992C61.2496 57.0463 61.1437 56.5998 60.9407 56.195L59.0247 52.3629C59.0247 52.3628 59.0246 52.3628 59.0246 52.3627C58.7825 51.8784 58.4104 51.471 57.95 51.1862C57.4895 50.9013 56.9587 50.7503 56.4172 50.75H56.4167H56.3916L20.9341 47.3104ZM20.9167 57.5C20.9167 58.0453 20.4834 58.4454 20 58.4454C19.5172 58.4454 19.0833 58.044 19.0833 57.5C19.0833 56.9547 19.5166 56.5546 20 56.5546C20.4828 56.5546 20.9167 56.956 20.9167 57.5ZM35.3333 35.5C39.6652 35.5 43.8197 33.7792 46.8828 30.7161C49.9458 27.653 51.6667 23.4985 51.6667 19.1667C51.6667 14.8348 49.9458 10.6803 46.8828 7.61726C43.8197 4.55416 39.6652 2.83333 35.3333 2.83333C31.0015 2.83333 26.847 4.55416 23.7839 7.61726C20.7208 10.6803 19 14.8348 19 19.1667C19 23.4985 20.7208 27.653 23.7839 30.7161C26.847 33.7792 31.0015 35.5 35.3333 35.5ZM53.5 19.1667C53.5 29.2001 45.3668 37.3333 35.3333 37.3333C25.2999 37.3333 17.1667 29.2001 17.1667 19.1667C17.1667 9.1332 25.2999 1 35.3333 1C45.3668 1 53.5 9.1332 53.5 19.1667Z" stroke="black" stroke-width="2"/>
</svg>
