<svg width="70" height="69" viewBox="0 0 70 69" fill="none" xmlns="http://www.w3.org/2000/svg">
<g clip-path="url(#clip0_34_35)">
<path d="M37.875 57.5C38.6375 57.5 39.3688 57.8029 39.9079 58.3421C40.4471 58.8812 40.75 59.6125 40.75 60.375C40.75 61.1375 40.4471 61.8688 39.9079 62.4079C39.3688 62.9471 38.6375 63.25 37.875 63.25H32.125C31.3625 63.25 30.6312 62.9471 30.0921 62.4079C29.5529 61.8688 29.25 61.1375 29.25 60.375C29.25 59.6125 29.5529 58.8812 30.0921 58.3421C30.6312 57.8029 31.3625 57.5 32.125 57.5H37.875ZM35 5.75C47.6787 5.75 58 15.9361 58 28.5574C58 37.1996 53.6242 43.4959 50.0075 47.2276L49.191 48.0412L48.4148 48.7657L47.6902 49.3982L46.7415 50.1745L45.7985 50.876C45.235 51.2727 44.821 51.8219 44.4587 52.4141L44.0419 53.1358L43.6365 53.8602C42.9465 55.0447 42.1472 56.0625 40.4424 56.0625H29.5576C27.8528 56.0625 27.0535 55.0447 26.3664 53.8602L25.754 52.7735C25.3371 52.0461 24.8771 51.3532 24.2015 50.876L23.5345 50.3844L22.9624 49.9388L22.3097 49.3982L21.5853 48.7657L20.809 48.0412L19.9896 47.2276C16.3757 43.4959 12 37.1996 12 28.5574C12 15.9361 22.3213 5.75 35 5.75ZM35 11.5C25.4464 11.5 17.75 19.1619 17.75 28.5574C17.75 36.1014 22.1574 41.4776 25.2049 44.2865L25.9093 44.9132L26.5417 45.4365L27.318 46.0345L27.525 46.184C28.4306 46.8222 29.1034 47.7106 29.7157 48.6392L30.7881 50.3125H39.2119L40.2843 48.6392C40.8966 47.7106 41.5694 46.8222 42.475 46.184L43.1736 45.6607L43.7659 45.1864L44.4357 44.6114C47.4832 41.906 52.25 36.4032 52.25 28.5574C52.25 19.1619 44.5536 11.5 35 11.5ZM35.8424 18.0924C36.3598 17.5768 37.054 17.2774 37.7841 17.2551C38.5142 17.2328 39.2254 17.4892 39.7733 17.9723C40.3212 18.4554 40.6646 19.129 40.7339 19.8561C40.8032 20.5833 40.5931 21.3095 40.1462 21.8874L39.9076 22.1576L36.1902 25.875L39.8875 29.5723C40.934 30.6188 41.0145 32.2661 40.129 33.4046L39.8875 33.6777L34.1576 39.4076C33.6402 39.9232 32.946 40.2226 32.2159 40.2449C31.4858 40.2672 30.7746 40.0108 30.2267 39.5277C29.6788 39.0446 29.3354 38.371 29.2661 37.6439C29.1968 36.9167 29.4069 36.1905 29.8538 35.6126L30.0924 35.3424L33.8098 31.625L30.1125 27.9277C29.6126 27.4278 29.3123 26.7627 29.2678 26.0572C29.2234 25.3516 29.4378 24.6541 29.871 24.0954L30.1125 23.8223L35.8424 18.0924Z" fill="black"/>
</g>
<defs>
<clipPath id="clip0_34_35">
<rect width="69" height="69" fill="white" transform="translate(0.5)"/>
</clipPath>
</defs>
</svg>
