<svg width="52" height="65" viewBox="0 0 52 65" fill="none" xmlns="http://www.w3.org/2000/svg">
<path d="M30.7559 10.2408C31.0793 9.91734 31.261 9.47866 31.261 9.02125C31.261 8.56385 31.0793 8.12516 30.7559 7.80168L23.4385 0.484228C23.1131 0.170005 22.6774 -0.00386506 22.2251 6.52096e-05C21.7728 0.00399548 21.3402 0.185412 21.0203 0.505241C20.7005 0.82507 20.5191 1.25772 20.5152 1.71001C20.5112 2.1623 20.6851 2.59804 20.9993 2.92338L24.439 6.36303C19.1359 6.6578 14.0519 8.57739 9.8774 11.8612C5.70288 15.145 2.64002 19.6339 1.10467 24.7184C-0.430675 29.803 -0.364132 35.2368 1.29527 40.2822C2.95467 45.3277 6.12653 49.7402 10.3802 52.9208C10.7462 53.1953 11.2063 53.3131 11.6592 53.2484C12.1121 53.1837 12.5207 52.9418 12.7952 52.5758C13.0697 52.2098 13.1876 51.7497 13.1229 51.2968C13.0582 50.8439 12.8162 50.4353 12.4502 50.1608C8.34473 47.0918 5.41452 42.709 4.14758 37.7423C2.88064 32.7755 3.35345 27.5247 5.48727 22.8641C7.62109 18.2036 11.2871 14.4148 15.8748 12.1286C20.4625 9.84239 25.6949 9.19685 30.7007 10.2995L30.7559 10.2408ZM20.9993 54.1524L21.0545 54.0972C22.4621 54.4077 23.9215 54.5802 25.4153 54.6147L25.3946 54.6354C25.4793 54.6247 25.5646 54.6201 25.6499 54.6216C30.3793 54.6707 35.0031 53.2233 38.8603 50.4862C42.7174 47.7491 45.6105 43.8626 47.1257 39.3823C48.641 34.9019 48.7009 30.0572 47.2969 25.5408C45.8928 21.0244 43.0968 17.0675 39.3085 14.2359C39.1272 14.1 38.9746 13.9297 38.8592 13.7348C38.7437 13.5399 38.6678 13.3241 38.6358 13.0999C38.6038 12.8756 38.6162 12.6473 38.6724 12.4278C38.7287 12.2084 38.8276 12.0022 38.9635 11.8209C39.0994 11.6397 39.2697 11.487 39.4646 11.3716C39.6595 11.2562 39.8753 11.1803 40.0995 11.1483C40.3238 11.1162 40.5521 11.1287 40.7716 11.1849C40.991 11.2411 41.1972 11.34 41.3785 11.4759C45.6322 14.6565 48.804 19.069 50.4634 24.1145C52.1228 29.1599 52.1894 34.5938 50.654 39.6783C49.1187 44.7628 46.0558 49.2517 41.8813 52.5355C37.7068 55.8193 32.6228 57.7389 27.3197 58.0337L30.7559 61.4699C30.9207 61.629 31.0521 61.8194 31.1425 62.0298C31.2329 62.2403 31.2805 62.4666 31.2825 62.6957C31.2845 62.9247 31.2408 63.1519 31.1541 63.3639C31.0674 63.5759 30.9393 63.7685 30.7773 63.9304C30.6153 64.0924 30.4227 64.2205 30.2107 64.3072C29.9987 64.3939 29.7716 64.4376 29.5426 64.4356C29.3135 64.4336 29.0872 64.386 28.8767 64.2956C28.6662 64.2052 28.4759 64.0738 28.3168 63.909L20.9993 56.595C20.8387 56.4348 20.7112 56.2444 20.6243 56.0349C20.5373 55.8253 20.4925 55.6006 20.4925 55.3737C20.4925 55.1468 20.5373 54.9222 20.6243 54.7126C20.7112 54.503 20.8387 54.3127 20.9993 54.1524ZM43.1276 32.1966C43.1276 36.7716 41.3102 41.1592 38.0752 44.3942C34.8402 47.6292 30.4526 49.4466 25.8776 49.4466C21.3026 49.4466 16.915 47.6292 13.68 44.3942C10.445 41.1592 8.62762 36.7716 8.62762 32.1966C8.62762 27.6216 10.445 23.234 13.68 19.999C16.915 16.764 21.3026 14.9466 25.8776 14.9466C30.4526 14.9466 34.8402 16.764 38.0752 19.999C41.3102 23.234 43.1276 27.6216 43.1276 32.1966ZM33.9989 25.8003C33.8387 25.6397 33.6483 25.5122 33.4388 25.4253C33.2292 25.3383 33.0045 25.2935 32.7776 25.2935C32.5507 25.2935 32.3261 25.3383 32.1165 25.4253C31.9069 25.5122 31.7166 25.6397 31.5563 25.8003L22.4276 34.9325L18.4739 30.9753C18.15 30.6514 17.7107 30.4694 17.2526 30.4694C16.7945 30.4694 16.3552 30.6514 16.0313 30.9753C15.7074 31.2992 15.5254 31.7386 15.5254 32.1966C15.5254 32.6547 15.7074 33.094 16.0313 33.4179L21.2063 38.5929C21.3666 38.7536 21.5569 38.881 21.7665 38.968C21.9761 39.055 22.2007 39.0997 22.4276 39.0997C22.6545 39.0997 22.8792 39.055 23.0888 38.968C23.2983 38.881 23.4887 38.7536 23.6489 38.5929L33.9989 28.2429C34.1596 28.0827 34.287 27.8923 34.374 27.6828C34.4609 27.4732 34.5057 27.2485 34.5057 27.0216C34.5057 26.7947 34.4609 26.5701 34.374 26.3605C34.287 26.1509 34.1596 25.9606 33.9989 25.8003Z" fill="#0E63F4"/>
</svg>
