<svg width="70" height="69" viewBox="0 0 70 69" fill="none" xmlns="http://www.w3.org/2000/svg">
<path d="M29.25 37.375C28.2437 39.0712 27.41 40.94 26.9212 42.9238C19.1875 43.585 11.7125 47.2075 11.7125 48.875V52.0375H26.95C27.4387 53.9925 28.2437 55.8325 29.25 57.5H6.25V48.875C6.25 41.2275 21.5737 37.375 29.25 37.375ZM29.25 11.5C32.3 11.5 35.2251 12.7116 37.3817 14.8683C39.5384 17.0249 40.75 19.95 40.75 23C40.75 25.6163 39.8587 28.0312 38.3925 29.9863C35.92 30.9062 33.7062 32.3725 31.8662 34.2125L29.25 34.5C26.2 34.5 23.2749 33.2884 21.1183 31.1317C18.9616 28.9751 17.75 26.05 17.75 23C17.75 19.95 18.9616 17.0249 21.1183 14.8683C23.2749 12.7116 26.2 11.5 29.25 11.5ZM29.25 16.9625C27.6488 16.9625 26.1131 17.5986 24.9808 18.7308C23.8486 19.8631 23.2125 21.3988 23.2125 23C23.2125 24.6012 23.8486 26.1369 24.9808 27.2692C26.1131 28.4014 27.6488 29.0375 29.25 29.0375C30.8512 29.0375 32.3869 28.4014 33.5192 27.2692C34.6514 26.1369 35.2875 24.6012 35.2875 23C35.2875 21.3988 34.6514 19.8631 33.5192 18.7308C32.3869 17.5986 30.8512 16.9625 29.25 16.9625ZM45.0625 34.5C52.25 34.5 58 40.25 58 47.4375C58 49.9675 57.2812 52.3537 56.0162 54.3375L64.8712 63.25L60.875 67.2462L51.905 58.42C49.9212 59.6562 47.5638 60.375 45.0625 60.375C37.875 60.375 32.125 54.625 32.125 47.4375C32.125 40.25 37.875 34.5 45.0625 34.5ZM45.0625 40.25C43.1563 40.25 41.3281 41.0073 39.9802 42.3552C38.6323 43.7031 37.875 45.5313 37.875 47.4375C37.875 49.3437 38.6323 51.1719 39.9802 52.5198C41.3281 53.8677 43.1563 54.625 45.0625 54.625C46.9687 54.625 48.7969 53.8677 50.1448 52.5198C51.4927 51.1719 52.25 49.3437 52.25 47.4375C52.25 45.5313 51.4927 43.7031 50.1448 42.3552C48.7969 41.0073 46.9687 40.25 45.0625 40.25Z" fill="black"/>
</svg>
